REM DIRINDEX 1\2,1\3\7,1\3\8,1\4\9,1\4\10,1\4\11,1\5\12,1\5\13,1\5\14,1\6\15,1\6\16,1\6\17
REM DIRNAME "folder01","folder02","folder03","folder04","folder05","folder06","folder07","folder08","folder09","folder10","folder11","folder12","folder13","folder14","folder15","folder16","folder17"
TITLE ""
FILE "2Q_t_0470-0487.mp3" MP3
  TRACK 01 AUDIO
    TITLE "0:"
    INDEX 01 00:00:00
  TRACK 02 AUDIO
    TITLE "7:cjc174_2692"
    INDEX 01 00:00:12
  TRACK 03 AUDIO
    TITLE "0:"
    INDEX 01 00:01:25
  TRACK 04 AUDIO
    TITLE "8:cjc174_2693"
    INDEX 01 00:02:05
  TRACK 05 AUDIO
    TITLE "0:"
    INDEX 01 00:06:32
  TRACK 06 AUDIO
    TITLE "7:cjc174_2694"
    INDEX 01 00:07:01
  TRACK 07 AUDIO
    TITLE "0:"
    INDEX 01 00:08:14
  TRACK 08 AUDIO
    TITLE "8:cjc174_2695"
    INDEX 01 00:08:59
  TRACK 09 AUDIO
    TITLE "0:"
    INDEX 01 00:10:66
  TRACK 10 AUDIO
    TITLE "7:cjc174_2696"
    INDEX 01 00:11:36
  TRACK 11 AUDIO
    TITLE "0:"
    INDEX 01 00:12:37
  TRACK 12 AUDIO
    TITLE "8:cjc174_2697"
    INDEX 01 00:13:09
  TRACK 13 AUDIO
    TITLE "0:"
    INDEX 01 00:16:58
  TRACK 14 AUDIO
    TITLE "7:cjc174_2698"
    INDEX 01 00:17:28
  TRACK 15 AUDIO
    TITLE "0:"
    INDEX 01 00:18:45
  TRACK 16 AUDIO
    TITLE "8:cjc174_2699"
    INDEX 01 00:19:23
  TRACK 17 AUDIO
    TITLE "0:"
    INDEX 01 00:22:12
  TRACK 18 AUDIO
    TITLE "7:cjc174_2700"
    INDEX 01 00:22:57
  TRACK 19 AUDIO
    TITLE "0:"
    INDEX 01 00:23:56
  TRACK 20 AUDIO
    TITLE "8:cjc174_2701"
    INDEX 01 00:24:36
  TRACK 21 AUDIO
    TITLE "0:"
    INDEX 01 00:26:63
  TRACK 22 AUDIO
    TITLE "7:cjc174_2702"
    INDEX 01 00:27:33
  TRACK 23 AUDIO
    TITLE "0:"
    INDEX 01 00:28:38
  TRACK 24 AUDIO
    TITLE "8:cjc174_2703"
    INDEX 01 00:29:12
  TRACK 25 AUDIO
    TITLE "0:"
    INDEX 01 00:31:48
  TRACK 26 AUDIO
    TITLE "7:cjc174_2704"
    INDEX 01 00:32:18
  TRACK 27 AUDIO
    TITLE "0:"
    INDEX 01 00:33:29
  TRACK 28 AUDIO
    TITLE "8:cjc174_2705"
    INDEX 01 00:34:05
  TRACK 29 AUDIO
    TITLE "0:"
    INDEX 01 00:36:65
  TRACK 30 AUDIO
    TITLE "7:cjc174_2706"
    INDEX 01 00:37:33
  TRACK 31 AUDIO
    TITLE "0:"
    INDEX 01 00:38:60
  TRACK 32 AUDIO
    TITLE "8:cjc174_2707"
    INDEX 01 00:39:32
  TRACK 33 AUDIO
    TITLE "0:"
    INDEX 01 00:41:56
  TRACK 34 AUDIO
    TITLE "7:cjc174_2708"
    INDEX 01 00:42:28
  TRACK 35 AUDIO
    TITLE "0:"
    INDEX 01 00:43:51
  TRACK 36 AUDIO
    TITLE "8:cjc174_2709"
    INDEX 01 00:44:23
  TRACK 37 AUDIO
    TITLE "0:"
    INDEX 01 00:45:38
  TRACK 38 AUDIO
    TITLE "7:cjc174_2710"
    INDEX 01 00:46:06
  TRACK 39 AUDIO
    TITLE "0:"
    INDEX 01 00:47:16
  TRACK 40 AUDIO
    TITLE "8:cjc174_2711"
    INDEX 01 00:47:69
  TRACK 41 AUDIO
    TITLE "0:"
    INDEX 01 00:50:43
  TRACK 42 AUDIO
    TITLE "7:cjc174_2712"
    INDEX 01 00:51:16
  TRACK 43 AUDIO
    TITLE "0:"
    INDEX 01 00:52:50
  TRACK 44 AUDIO
    TITLE "8:cjc174_2713"
    INDEX 01 00:53:24
  TRACK 45 AUDIO
    TITLE "0:"
    INDEX 01 00:55:72
  TRACK 46 AUDIO
    TITLE "7:cjc174_2714"
    INDEX 01 00:56:42
  TRACK 47 AUDIO
    TITLE "0:"
    INDEX 01 00:57:49
  TRACK 48 AUDIO
    TITLE "8:cjc174_2715"
    INDEX 01 00:58:23
  TRACK 49 AUDIO
    TITLE "0:"
    INDEX 01 00:59:44
  TRACK 50 AUDIO
    TITLE "7:cjc174_2716"
    INDEX 01 01:00:12
  TRACK 51 AUDIO
    TITLE "0:"
    INDEX 01 01:01:33
  TRACK 52 AUDIO
    TITLE "8:cjc174_2717"
    INDEX 01 01:02:06
  TRACK 53 AUDIO
    TITLE "0:"
    INDEX 01 01:04:30
  TRACK 54 AUDIO
    TITLE "7:cjc174_2718"
    INDEX 01 01:05:00
  TRACK 55 AUDIO
    TITLE "0:"
    INDEX 01 01:06:09
  TRACK 56 AUDIO
    TITLE "8:cjc174_2719"
    INDEX 01 01:06:60
  TRACK 57 AUDIO
    TITLE "0:"
    INDEX 01 01:09:35
  TRACK 58 AUDIO
    TITLE "7:cjc174_2720"
    INDEX 01 01:10:05
  TRACK 59 AUDIO
    TITLE "0:"
    INDEX 01 01:11:44
  TRACK 60 AUDIO
    TITLE "8:cjc174_2721"
    INDEX 01 01:12:16
  TRACK 61 AUDIO
    TITLE "0:"
    INDEX 01 01:15:08
  TRACK 62 AUDIO
    TITLE "7:cjc174_2722"
    INDEX 01 01:15:55
  TRACK 63 AUDIO
    TITLE "0:"
    INDEX 01 01:16:62
  TRACK 64 AUDIO
    TITLE "8:cjc174_2723"
    INDEX 01 01:17:38
  TRACK 65 AUDIO
    TITLE "0:"
    INDEX 01 01:19:12
  TRACK 66 AUDIO
    TITLE "7:cjc174_2724"
    INDEX 01 01:19:59
  TRACK 67 AUDIO
    TITLE "0:"
    INDEX 01 01:21:03
  TRACK 68 AUDIO
    TITLE "8:cjc174_2725"
    INDEX 01 01:21:52
  TRACK 69 AUDIO
    TITLE "0:"
    INDEX 01 01:23:25
  TRACK 70 AUDIO
    TITLE "7:cjc174_2726"
    INDEX 01 01:23:68
  TRACK 71 AUDIO
    TITLE "0:"
    INDEX 01 01:25:09
  TRACK 72 AUDIO
    TITLE "8:cjc174_2727"
    INDEX 01 01:25:65
  TRACK 73 AUDIO
    TITLE "0:"
    INDEX 01 01:27:19
